<svg width="214" height="183" viewBox="0 0 214 183" fill="none" xmlns="http://www.w3.org/2000/svg">
<rect x="46.1641" y="15.1653" width="41.833" height="41.833"  />
<rect opacity="0.7" x="87.998" y="15.1653" width="41.833" height="41.833"  />
<rect opacity="0.5" x="129.83" y="15.1653" width="41.833" height="41.833"  />
<rect opacity="0.7" x="129.83" y="56.9983" width="41.833" height="41.833"  />
<rect opacity="0.5" x="171.664" y="99" width="41.833" height="41.833"  />
<rect opacity="0.5" x="129.83" y="98.8313" width="41.833" height="41.833"  />
<rect opacity="0.5" x="87.998" y="140.664" width="41.833" height="41.833"  />
<rect opacity="0.7" x="87.998" y="98.8313" width="41.833" height="41.833"  />
<rect opacity="0.7" x="46.1641" y="140.664" width="41.833" height="41.833"  />
<rect opacity="0.7" x="4.33203" y="98.8313" width="41.833" height="41.833"  />
<rect opacity="0.7" x="4.33203" y="56.9983" width="41.833" height="41.833"  />
<rect x="4.33203" y="15.1653" width="41.833" height="41.833"  />
<rect x="46.1641" y="56.9983" width="41.833" height="41.833"  />
<rect opacity="0.7" x="87.998" y="56.9983" width="41.833" height="41.833"  />
<rect opacity="0.7" x="46.1641" y="98.8313" width="41.833" height="41.833"  />
<path d="M35.0193 14.4595V51.9419H26.0235V14.4595H35.0193ZM3.53405 51.9419V14.4595H12.5834V51.9419H3.53405ZM11.7266 36.6812V29.2383H26.8802V36.6812H11.7266ZM57.8153 52.7451C54.5669 52.7451 51.5504 51.9597 48.766 50.3891C45.9816 48.8184 43.7327 46.5516 42.0192 43.5887C40.3414 40.6258 39.5025 37.1631 39.5025 33.2007C39.5025 29.2383 40.3414 25.7756 42.0192 22.8127C43.697 19.8498 45.9281 17.583 48.7125 16.0123C51.4969 14.4416 54.5312 13.6563 57.8153 13.6563C61.0638 13.6563 64.0803 14.4416 66.8647 16.0123C69.6848 17.583 71.9337 19.8498 73.6115 22.8127C75.2893 25.7756 76.1282 29.2383 76.1282 33.2007C76.1282 37.1631 75.2893 40.6258 73.6115 43.5887C71.9337 46.5516 69.6848 48.8184 66.8647 50.3891C64.0803 51.9597 61.0638 52.7451 57.8153 52.7451ZM57.8153 45.3557C59.5645 45.3557 61.0995 44.8738 62.4203 43.91C63.7768 42.9461 64.8121 41.5361 65.526 39.6798C66.2757 37.8235 66.6505 35.6638 66.6505 33.2007C66.6505 30.7376 66.2757 28.5779 65.526 26.7216C64.8121 24.8653 63.7768 23.4553 62.4203 22.4914C61.0995 21.5276 59.5645 21.0457 57.8153 21.0457C56.0662 21.0457 54.5133 21.5276 53.1568 22.4914C51.836 23.4553 50.8008 24.8653 50.0511 26.7216C49.3372 28.5779 48.9802 30.7376 48.9802 33.2007C48.9802 35.6638 49.3372 37.8235 50.0511 39.6798C50.8008 41.5361 51.836 42.9461 53.1568 43.91C54.5133 44.8738 56.0662 45.3557 57.8153 45.3557ZM79.2728 14.4595H90.8923L93.998 26.1861C94.355 27.5426 94.6405 28.685 94.8547 29.6131C95.1046 30.5055 95.3545 31.4694 95.6044 32.5046C95.89 33.6826 96.1934 34.9677 96.5147 36.3599H96.6218C97.4785 32.9687 98.3174 29.5774 99.1384 26.1861L102.191 14.4595H113.435V51.9419H104.975V41.8216C104.975 38.6089 105.011 35.5924 105.082 32.7723C105.153 29.9165 105.261 27.1857 105.403 24.5797H105.992L99.9416 47.1227H92.82L86.7692 24.5262L87.3582 24.4727C87.6438 30.9696 87.7866 36.7526 87.7866 41.8216V51.9419H79.2728V14.4595ZM121.345 14.4595H149.243V21.956H126.325L130.395 17.8865V30.1486L129.431 29.1847H146.298V36.3064H129.431L130.395 35.3425V48.5149L126.325 44.4454H149.511V51.9419H121.345V14.4595Z" fill="#0A0A0A"/>
</svg>
