<svg width="211" height="210" viewBox="0 0 211 210" fill="none" xmlns="http://www.w3.org/2000/svg">
<rect opacity="0.7" x="41.832" y="125.499" width="41.833" height="41.833"  />
<rect x="-0.00195312" y="125.499" width="41.833" height="41.833"  />
<rect x="-0.00195312" y="83.666" width="41.833" height="41.833"  />
<rect opacity="0.7" x="-0.00195312" y="41.833" width="41.833" height="41.833"  />
<rect opacity="0.7" x="-0.00195312" width="41.833" height="41.833"  />
<rect opacity="0.7" x="41.832" y="41.833" width="41.833" height="41.833"  />
<rect opacity="0.5" x="83.6641" y="41.833" width="41.833" height="41.833"  />
<rect opacity="0.5" x="125.498" y="41.833" width="41.833" height="41.833"  />
<rect opacity="0.5" x="167.33" y="83.666" width="41.833" height="41.833"  />
<rect opacity="0.7" x="125.498" y="83.666" width="41.833" height="41.833"  />
<rect opacity="0.7" x="83.6641" y="83.666" width="41.833" height="41.833"  />
<rect x="41.832" y="83.666" width="41.833" height="41.833"  />
<rect x="83.6641" y="125.499" width="41.833" height="41.833"  />
<rect opacity="0.5" x="125.498" y="125.499" width="41.833" height="41.833"  />
<rect opacity="0.3" x="167.33" y="125.499" width="41.833" height="41.833"  />
<rect opacity="0.3" x="125.498" y="167.332" width="41.833" height="41.833"  />
<rect opacity="0.5" x="41.832" width="41.833" height="41.833"  />
<path d="M73.9599 147.216C75.6734 147.216 77.137 146.788 78.3507 145.931C79.5645 145.038 80.1713 143.736 80.1713 142.022C80.1713 140.273 79.5645 138.97 78.3507 138.113C77.1727 137.256 75.7091 136.828 73.9599 136.828H68.8195L69.7833 135.864V167.296H60.734V129.813H74.656C77.4405 129.813 79.9571 130.295 82.2061 131.259C84.455 132.187 86.2399 133.58 87.5607 135.436C88.8815 137.256 89.5419 139.452 89.5419 142.022C89.5419 144.664 88.8815 146.93 87.5607 148.822C86.2399 150.679 84.4372 152.107 82.1525 153.106C79.9036 154.07 77.4048 154.552 74.656 154.552H68.9266V147.216H73.9599ZM101.629 129.813H110.678V160.281L109.714 159.318H125.671V167.296H101.629V129.813ZM146.379 129.813H156.927L169.725 167.296H160.087L153.929 146.359C152.929 143.039 152.144 140.362 151.573 138.327H151.519C150.948 140.398 150.163 143.057 149.163 146.306L142.845 167.296H133.474L146.379 129.813ZM142.898 153.374H160.087L162.443 160.71H140.435L142.898 153.374ZM185.721 151.125L186.203 152.892L172.281 129.813H183.097L186.792 136.453C187.613 137.917 188.112 138.863 188.291 139.291C189.255 141.112 189.987 142.575 190.486 143.682H190.593C190.915 142.932 191.2 142.272 191.45 141.701C191.736 141.13 192.057 140.487 192.414 139.773C193.021 138.631 193.628 137.524 194.235 136.453L197.822 129.813H208.103L194.288 152.731L194.77 150.964V167.296H185.721V151.125Z" fill="#0A0A0A"/>
</svg>
