<svg width="212" height="210" viewBox="0 0 212 210" fill="none" xmlns="http://www.w3.org/2000/svg">
<rect x="167.332" y="125.499" width="41.833" height="41.833"  />
<rect x="167.332" y="83.666" width="41.833" height="41.833"  />
<rect opacity="0.5" x="125.5" y="41.833" width="41.833" height="41.833"  />
<rect opacity="0.7" x="125.5" y="83.666" width="41.833" height="41.833"  />
<rect x="125.5" y="125.499" width="41.833" height="41.833" />
<rect opacity="0.5" x="83.666" y="125.499" width="41.833" height="41.833"  />
<rect opacity="0.5" x="83.666" y="83.666" width="41.833" height="41.833"  />
<rect opacity="0.3" x="83.666" y="41.833" width="41.833" height="41.833"  />
<rect opacity="0.3" x="83.666" width="41.833" height="41.833"  />
<rect opacity="0.3" x="125.5" width="41.833" height="41.833"  />
<rect opacity="0.7" x="167.332" y="41.833" width="41.833" height="41.833"  />
<rect opacity="0.5" x="41.834" y="41.833" width="41.833" height="41.833"  />
<rect opacity="0.3" y="41.833" width="41.833" height="41.833"  />
<rect opacity="0.3" y="83.666" width="41.833" height="41.833"  />
<rect opacity="0.5" x="41.834" y="83.666" width="41.833" height="41.833"  />
<rect opacity="0.3" x="41.834" y="125.499" width="41.833" height="41.833"  />
<rect opacity="0.7" x="83.666" y="167.332" width="41.833" height="41.833"  />
<path d="M57.428 41.1273H65.8348L68.7263 77.3246H67.1735L71.832 47.8206H81.149L85.7005 77.3246H83.987L86.6643 41.1273H94.964L91.0016 78.6097H79.8104L75.3125 48.9986H77.3473L72.6887 78.6097H61.444L57.428 41.1273ZM114.708 79.4129C111.459 79.4129 108.443 78.6276 105.659 77.0569C102.874 75.4862 100.625 73.2194 98.9118 70.2565C97.234 67.2936 96.3951 63.831 96.3951 59.8685C96.3951 55.9061 97.234 52.4435 98.9118 49.4806C100.59 46.5177 102.821 44.2509 105.605 42.6802C108.389 41.1095 111.424 40.3241 114.708 40.3241C117.956 40.3241 120.973 41.1095 123.757 42.6802C126.577 44.2509 128.826 46.5177 130.504 49.4806C132.182 52.4435 133.021 55.9061 133.021 59.8685C133.021 63.831 132.182 67.2936 130.504 70.2565C128.826 73.2194 126.577 75.4862 123.757 77.0569C120.973 78.6276 117.956 79.4129 114.708 79.4129ZM114.708 72.0235C116.457 72.0235 117.992 71.5416 119.313 70.5778C120.669 69.614 121.705 68.2039 122.419 66.3476C123.168 64.4914 123.543 62.3317 123.543 59.8685C123.543 57.4054 123.168 55.2457 122.419 53.3894C121.705 51.5332 120.669 50.1231 119.313 49.1593C117.992 48.1955 116.457 47.7135 114.708 47.7135C112.959 47.7135 111.406 48.1955 110.049 49.1593C108.729 50.1231 107.693 51.5332 106.944 53.3894C106.23 55.2457 105.873 57.4054 105.873 59.8685C105.873 62.3317 106.23 64.4914 106.944 66.3476C107.693 68.2039 108.729 69.614 110.049 70.5778C111.406 71.5416 112.959 72.0235 114.708 72.0235ZM138.254 41.1273H153.514C156.299 41.1273 158.78 41.5736 160.957 42.466C163.171 43.3227 164.902 44.6435 166.151 46.4284C167.401 48.2133 168.025 50.3909 168.025 52.9611C168.025 55.4956 167.311 57.6374 165.884 59.3866C164.491 61.1001 162.671 62.3852 160.422 63.242C158.209 64.063 155.906 64.4735 153.514 64.4735H146.393V57.6731H152.765C154.621 57.6731 156.102 57.2983 157.209 56.5487C158.351 55.7633 158.923 54.5675 158.923 52.9611C158.923 51.3904 158.351 50.1945 157.209 49.3735C156.067 48.5524 154.621 48.1419 152.872 48.1419H146.286L147.249 47.1781V78.6097H138.254V41.1273ZM148.16 60.5111H157.744L169.846 78.6097H159.351L148.16 60.5111ZM180.487 60.4576L198.907 41.1273H209.937L191.036 61.0466L189.162 62.4388L179.684 72.3448L180.487 60.4576ZM175.239 41.1273H184.289V78.6097H175.239V41.1273ZM186.109 59.226L194.409 56.1203L209.83 78.6097H198.8L186.109 59.226Z" fill="#0A0A0A"/>
</svg>
